<svg width="53" height="43" viewBox="0 0 53 43" fill="none" xmlns="http://www.w3.org/2000/svg">
<path d="M10.0938 24.5312H6.15625C5.41797 24.5312 4.84375 25.1875 4.84375 25.8438V29.7812C4.84375 30.5195 5.41797 31.0938 6.15625 31.0938H10.0938C10.75 31.0938 11.4062 30.5195 11.4062 29.7812V25.8438C11.4062 25.1875 10.75 24.5312 10.0938 24.5312ZM10.0938 29.7812H6.15625V25.8438H10.0938V29.7812ZM10.0938 35.0312H6.15625C5.41797 35.0312 4.84375 35.6875 4.84375 36.3438V40.2812C4.84375 41.0195 5.41797 41.5938 6.15625 41.5938H10.0938C10.75 41.5938 11.4062 41.0195 11.4062 40.2812V36.3438C11.4062 35.6875 10.75 35.0312 10.0938 35.0312ZM10.0938 40.2812H6.15625V36.3438H10.0938V40.2812ZM33.7188 16.6562H29.7812C29.043 16.6562 28.4688 17.3125 28.4688 17.9688V21.9062C28.4688 22.6445 29.043 23.2188 29.7812 23.2188H33.7188C34.375 23.2188 35.0312 22.6445 35.0312 21.9062V17.9688C35.0312 17.3125 34.375 16.6562 33.7188 16.6562ZM33.7188 21.9062H29.7812V17.9688H33.7188V21.9062ZM50.125 16H39.625V2.875C39.625 1.48047 38.3945 0.25 37 0.25H26.5C25.0234 0.25 23.875 1.48047 23.875 2.875V8.125H17.9688V0.90625C17.9688 0.578125 17.6406 0.25 17.3125 0.25C16.9023 0.25 16.6562 0.578125 16.6562 0.90625V8.125H7.46875V0.90625C7.46875 0.578125 7.14062 0.25 6.8125 0.25C6.40234 0.25 6.15625 0.578125 6.15625 0.90625V8.125H2.875C1.39844 8.125 0.25 9.35547 0.25 10.75V41.5938C0.25 42.0039 0.496094 42.25 0.90625 42.25C1.23438 42.25 1.5625 42.0039 1.5625 41.5938V10.75C1.5625 10.0938 2.13672 9.4375 2.875 9.4375H25.1875V2.875C25.1875 2.21875 25.7617 1.5625 26.5 1.5625H37C37.6562 1.5625 38.3125 2.21875 38.3125 2.875V17.3125H50.125C50.7812 17.3125 51.4375 17.9688 51.4375 18.625V41.5938C51.4375 42.0039 51.6836 42.25 52.0938 42.25C52.4219 42.25 52.75 42.0039 52.75 41.5938V18.625C52.75 17.2305 51.5195 16 50.125 16ZM10.0938 14.0312H6.15625C5.41797 14.0312 4.84375 14.6875 4.84375 15.3438V19.2812C4.84375 20.0195 5.41797 20.5938 6.15625 20.5938H10.0938C10.75 20.5938 11.4062 20.0195 11.4062 19.2812V15.3438C11.4062 14.6875 10.75 14.0312 10.0938 14.0312ZM10.0938 19.2812H6.15625V15.3438H10.0938V19.2812ZM46.8438 24.5312H42.9062C42.168 24.5312 41.5938 25.1875 41.5938 25.8438V29.7812C41.5938 30.5195 42.168 31.0938 42.9062 31.0938H46.8438C47.5 31.0938 48.1562 30.5195 48.1562 29.7812V25.8438C48.1562 25.1875 47.5 24.5312 46.8438 24.5312ZM46.8438 29.7812H42.9062V25.8438H46.8438V29.7812ZM33.7188 6.15625H29.7812C29.043 6.15625 28.4688 6.8125 28.4688 7.46875V11.4062C28.4688 12.1445 29.043 12.7188 29.7812 12.7188H33.7188C34.375 12.7188 35.0312 12.1445 35.0312 11.4062V7.46875C35.0312 6.8125 34.375 6.15625 33.7188 6.15625ZM33.7188 11.4062H29.7812V7.46875H33.7188V11.4062ZM20.5938 14.0312H16.6562C15.918 14.0312 15.3438 14.6875 15.3438 15.3438V19.2812C15.3438 20.0195 15.918 20.5938 16.6562 20.5938H20.5938C21.25 20.5938 21.9062 20.0195 21.9062 19.2812V15.3438C21.9062 14.6875 21.25 14.0312 20.5938 14.0312ZM20.5938 19.2812H16.6562V15.3438H20.5938V19.2812ZM33.7188 27.1562H29.7812C29.043 27.1562 28.4688 27.8125 28.4688 28.4688V32.4062C28.4688 33.1445 29.043 33.7188 29.7812 33.7188H33.7188C34.375 33.7188 35.0312 33.1445 35.0312 32.4062V28.4688C35.0312 27.8125 34.375 27.1562 33.7188 27.1562ZM33.7188 32.4062H29.7812V28.4688H33.7188V32.4062ZM46.8438 35.0312H42.9062C42.168 35.0312 41.5938 35.6875 41.5938 36.3438V40.2812C41.5938 41.0195 42.168 41.5938 42.9062 41.5938H46.8438C47.5 41.5938 48.1562 41.0195 48.1562 40.2812V36.3438C48.1562 35.6875 47.5 35.0312 46.8438 35.0312ZM46.8438 40.2812H42.9062V36.3438H46.8438V40.2812ZM20.5938 35.0312H16.6562C15.918 35.0312 15.3438 35.6875 15.3438 36.3438V40.2812C15.3438 41.0195 15.918 41.5938 16.6562 41.5938H20.5938C21.25 41.5938 21.9062 41.0195 21.9062 40.2812V36.3438C21.9062 35.6875 21.25 35.0312 20.5938 35.0312ZM20.5938 40.2812H16.6562V36.3438H20.5938V40.2812ZM20.5938 24.5312H16.6562C15.918 24.5312 15.3438 25.1875 15.3438 25.8438V29.7812C15.3438 30.5195 15.918 31.0938 16.6562 31.0938H20.5938C21.25 31.0938 21.9062 30.5195 21.9062 29.7812V25.8438C21.9062 25.1875 21.25 24.5312 20.5938 24.5312ZM20.5938 29.7812H16.6562V25.8438H20.5938V29.7812Z" fill="white"/>
</svg>
