<svg width="32" height="43" viewBox="0 0 32 43" fill="none" xmlns="http://www.w3.org/2000/svg">
<path d="M14.6875 11.4062C14.6875 11.0781 14.3594 10.75 14.0312 10.75H6.15625C5.74609 10.75 5.5 11.0781 5.5 11.4062C5.5 11.8164 5.74609 12.0625 6.15625 12.0625H14.0312C14.3594 12.0625 14.6875 11.8164 14.6875 11.4062ZM6.15625 6.8125H14.0312C14.3594 6.8125 14.6875 6.56641 14.6875 6.15625C14.6875 5.82812 14.3594 5.5 14.0312 5.5H6.15625C5.74609 5.5 5.5 5.82812 5.5 6.15625C5.5 6.56641 5.74609 6.8125 6.15625 6.8125ZM30.9297 12.6367L19.3633 1.07031C18.8711 0.578125 18.2148 0.25 17.4766 0.25H5.5C2.54688 0.25 0.25 2.62891 0.25 5.5V37C0.25 39.9531 2.54688 42.25 5.5 42.25H26.5C29.3711 42.25 31.75 39.9531 31.75 37V14.5234C31.75 13.7852 31.4219 13.1289 30.9297 12.6367ZM18.625 2.13672L29.8633 13.375H20.5938C19.4453 13.375 18.625 12.5547 18.625 11.4062V2.13672ZM30.4375 37C30.4375 39.2148 28.6328 40.9375 26.5 40.9375H5.5C3.28516 40.9375 1.5625 39.2148 1.5625 37V5.5C1.5625 3.36719 3.28516 1.5625 5.5 1.5625H17.3125V11.4062C17.3125 13.293 18.707 14.6875 20.5938 14.6875H30.4375V37ZM16.1641 27.2383L15.5078 27.0742C12.9648 26.3359 11.7344 25.6797 12.0625 23.957C12.3906 22.1523 14.7695 21.7422 17.0664 22.0703C17.6406 22.1523 18.2969 22.3164 19.1992 22.6445C19.5273 22.7266 19.9375 22.5625 20.0195 22.1523C20.1016 21.8242 19.9375 21.4961 19.6094 21.332C18.625 21.0039 17.8867 20.8398 17.2305 20.7578C16.9844 20.7578 16.8203 20.7578 16.6562 20.6758V19.2812C16.6562 18.9531 16.3281 18.625 16 18.625C15.5898 18.625 15.3438 18.9531 15.3438 19.2812V20.6758C12.8008 20.7578 11.1602 21.9062 10.75 23.7109C10.1758 26.9102 13.293 27.8125 15.1797 28.3047L15.7539 28.4688C18.7891 29.2891 20.1836 29.8633 19.8555 31.75C19.5273 33.5547 17.1484 33.9648 14.8516 33.6367C13.9492 33.5547 12.9648 33.1445 11.9805 32.8164L11.5703 32.7344C11.2422 32.5703 10.832 32.7344 10.75 33.1445C10.668 33.4727 10.832 33.8008 11.1602 33.9648L11.5703 34.0469C12.5547 34.457 13.7031 34.7852 14.6875 34.9492C14.9336 34.9492 15.0977 34.9492 15.3438 35.0312V36.3438C15.3438 36.7539 15.5898 37 16 37C16.3281 37 16.6562 36.7539 16.6562 36.3438V35.0312C19.1172 34.9492 20.7578 33.8008 21.168 31.9961C21.7422 28.7148 18.625 27.8945 16.1641 27.2383Z" fill="white"/>
</svg>
