<svg width="43" height="43" viewBox="0 0 43 43" fill="none" xmlns="http://www.w3.org/2000/svg">
<path d="M30.8594 22.2344L22.2461 21.0039L18.3906 13.1289C18.0625 12.4727 17.4062 12.0625 16.668 12.0625C16.0117 12.0625 15.3555 12.4727 15.0273 13.1289L11.1719 21.0039L2.55859 22.2344C1 22.4805 0.425781 24.3672 1.57422 25.4336L7.72656 31.5039L6.25 40.1172C6.08594 41.3477 7.07031 42.25 8.13672 42.25C8.46484 42.25 8.71094 42.25 9.03906 42.0859L16.668 37.9844L24.3789 42.0859C24.707 42.25 24.9531 42.25 25.2812 42.25C25.6914 42.25 26.0195 42.168 26.3477 41.9219C26.9219 41.5117 27.25 40.7734 27.168 40.1172L25.6914 31.5039L31.9258 25.4336C32.9922 24.3672 32.418 22.4805 30.8594 22.2344ZM30.9414 24.5312L24.2969 31.0117L25.8555 40.2812C25.9375 40.7734 25.4453 41.1016 25.0352 40.9375L16.668 36.5078L8.38281 40.9375C7.97266 41.1016 7.48047 40.7734 7.5625 40.2812L9.20312 31.0117L2.47656 24.5312C2.06641 24.1211 2.3125 23.5469 2.80469 23.5469L12.0742 22.1523L16.1758 13.7031C16.3398 13.457 16.5859 13.375 16.668 13.375L17.2422 13.7031L21.3438 22.1523L30.6133 23.5469C31.1055 23.5469 31.3516 24.2031 30.9414 24.5312ZM22.6562 7.46875H27.9062V12.7188C27.9062 13.1289 28.1523 13.375 28.5625 13.375C28.8906 13.375 29.2188 13.1289 29.2188 12.7188V7.46875H34.4688C34.7969 7.46875 35.125 7.22266 35.125 6.8125C35.125 6.48438 34.7969 6.15625 34.4688 6.15625H29.2188V0.90625C29.2188 0.578125 28.8906 0.25 28.5625 0.25C28.1523 0.25 27.9062 0.578125 27.9062 0.90625V6.15625H22.6562C22.2461 6.15625 22 6.48438 22 6.8125C22 7.22266 22.2461 7.46875 22.6562 7.46875ZM42.3438 17.9688H38.4062V14.0312C38.4062 13.7031 38.0781 13.375 37.75 13.375C37.3398 13.375 37.0938 13.7031 37.0938 14.0312V17.9688H33.1562C32.7461 17.9688 32.5 18.2969 32.5 18.625C32.5 19.0352 32.7461 19.2812 33.1562 19.2812H37.0938V23.2188C37.0938 23.6289 37.3398 23.875 37.75 23.875C38.0781 23.875 38.4062 23.6289 38.4062 23.2188V19.2812H42.3438C42.6719 19.2812 43 19.0352 43 18.625C43 18.2969 42.6719 17.9688 42.3438 17.9688Z" fill="white"/>
</svg>
