<svg width="17" height="22" viewBox="0 0 17 22" fill="none" xmlns="http://www.w3.org/2000/svg">
<path d="M16.408 0H0.591796C0.265153 0 6.45125e-07 0.243446 6.45125e-07 0.543824V20.9115C-0.000461665 21.3196 0.247584 21.6935 0.642422 21.88C1.03749 22.0663 1.51278 22.0338 1.87317 21.7957L8.49989 17.4304L15.1268 21.7954C15.4875 22.0332 15.9623 22.0654 16.3571 21.8791C16.7517 21.6928 17 21.3192 17 20.9115V0.543824C17 0.243446 16.7348 0 16.408 0ZM15.8162 20.9113L8.84502 16.3192C8.63882 16.1834 8.36141 16.1834 8.15544 16.3192L1.18405 20.9115V1.08765H15.8162V20.9113Z" fill="black"/>
</svg>
